<svg width="1024" height="1024" viewBox="0 0 1024 1024" xmlns="http://www.w3.org/2000/svg">
    <defs>
        <filter id="texture">
            <feTurbulence type="fractalNoise" baseFrequency="0.9" numOctaves="1"
                stitchTiles="stitch" />
            <feColorMatrix type="matrix" values="1 0 0 0 0 0 1 0 0 0 0 0 1 0 0 0 0 0 0 0.1" />
            <feBlend mode="multiply" in="SourceGraphic" />
        </filter>
    </defs>

    <defs>
        <filter id="iconShadow" x="-5%" y="-5%" width="110%" height="110%">
            <feGaussianBlur in="SourceAlpha" stdDeviation="15" />
            <feOffset dx="0" dy="8" result="offsetblur" />
            <feFlood flood-color="rgba(0,0,0,0.1)" />
            <feComposite in2="offsetblur" operator="in" />
            <feMerge>
                <feMergeNode />
                <feMergeNode in="SourceGraphic" />
            </feMerge>
        </filter>
    </defs>

    <rect x="232" y="172" width="560" height="560" rx="120" ry="120" fill="#8B9D83"
        filter="url(#iconShadow)" />
    <!-- The book part -->
    <path
        d="M0 0 C1.06110489 -0.00210732 1.06110489 -0.00210732 2.14364624 -0.0042572 C4.45686342 -0.00288594 6.76899819 0.02238189 9.08203125 0.05078125 C10.26875931 0.0591803 10.26875931 0.0591803 11.47946167 0.06774902 C29.792308 0.19838136 47.71029057 1.62099423 65.83203125 4.30078125 C67.4409021 4.53716309 67.4409021 4.53716309 69.08227539 4.77832031 C74.51844828 5.63573644 79.57249034 6.77620613 84.75170898 8.63354492 C86.9408718 9.37906248 89.11569408 9.94313324 91.3671875 10.46875 C108.60202316 14.4993877 124.32182326 21.55249411 137.0703125 34.140625 C138.80866656 35.57187434 138.80866656 35.57187434 140.91015625 35.24609375 C143.19784952 34.22834045 144.54249891 33.05045763 146.33203125 31.30078125 C159.48748075 19.45360849 176.86079294 12.42653758 193.89453125 8.36328125 C194.55710937 8.20263184 195.2196875 8.04198242 195.90234375 7.87646484 C219.95379142 2.1797774 244.60721877 -0.01516333 269.26953125 -0.01171875 C270.12680817 -0.01353149 270.98408508 -0.01534424 271.86734009 -0.01721191 C274.3012382 -0.01662574 276.73422448 0.00107475 279.16796875 0.02734375 C279.89246719 0.02975067 280.61696564 0.03215759 281.36341858 0.03463745 C285.11654892 0.10488403 287.62829745 0.56324116 290.89453125 2.36328125 C290.9631522 35.1798789 291.01603703 67.996458 291.04772724 100.813111 C291.0514795 104.68473362 291.05536245 108.5563561 291.05932617 112.42797852 C291.0601131 113.1987702 291.06090003 113.96956188 291.06171081 114.76371088 C291.07477559 127.25503523 291.09843531 139.74631829 291.12598964 152.23761813 C291.15401405 165.04858062 291.17070122 177.85952144 291.17679673 190.67051333 C291.18091935 198.57977829 291.19395441 206.48892655 291.21828065 214.39815559 C291.23596772 220.45625639 291.23790439 226.51425616 291.23385429 232.57238579 C291.23468273 235.06253403 291.24069093 237.55268651 291.25214767 240.04280853 C291.26697901 243.43131794 291.26351897 246.81931987 291.2552948 250.20783997 C291.26403332 251.2029661 291.27277185 252.19809224 291.28177518 253.22337371 C291.27580203 254.12806292 291.26982889 255.03275212 291.26367474 255.96485615 C291.26538348 257.13876155 291.26538348 257.13876155 291.26712674 258.33638221 C290.79700518 260.89381772 289.91902087 261.78093434 287.89453125 263.36328125 C285.96238708 263.74182129 285.96238708 263.74182129 283.74389648 263.74804688 C282.9061821 263.75828888 282.06846771 263.76853088 281.20536804 263.77908325 C280.29712784 263.77593109 279.38888763 263.77277893 278.453125 263.76953125 C276.49967349 263.78945436 274.54622301 263.8094778 272.59277344 263.82958984 C271.56970093 263.83464539 270.54662842 263.83970093 269.49255371 263.84490967 C251.42560316 263.94992979 233.773485 264.61111633 215.89453125 267.36328125 C214.24234705 267.59359541 212.59000819 267.82280338 210.9375 268.05078125 C187.17102792 271.48418368 161.25576111 280.00205139 143.89453125 297.36328125 C139.66427399 297.89142861 137.5516729 297.78579129 133.9296875 295.45703125 C132.94871094 294.60109375 131.96773437 293.74515625 130.95703125 292.86328125 C111.7130408 276.98042772 85.25411226 269.87944795 60.95703125 266.67578125 C59.7720253 266.51411469 59.7720253 266.51411469 58.56307983 266.34918213 C41.72879159 264.0991588 24.91077512 263.74199931 7.94360352 263.7277832 C6.96260681 263.72250107 5.98161011 263.71721893 4.97088623 263.71177673 C3.12385046 263.70360392 1.27669739 263.70834785 -0.57025146 263.7280426 C-1.38971252 263.72417038 -2.20917358 263.72029816 -3.0534668 263.71630859 C-4.1239753 263.72227554 -4.1239753 263.72227554 -5.21611023 263.72836304 C-7.73427335 263.24177699 -8.51077377 262.34949772 -10.10546875 260.36328125 C-10.48151624 258.34624624 -10.48151624 258.34624624 -10.48299217 255.98885345 C-10.49472704 254.63981989 -10.49472704 254.63981989 -10.50669897 253.26353312 C-10.5000068 252.27434429 -10.49331464 251.28515546 -10.48641968 250.26599121 C-10.49343964 248.69111191 -10.49343964 248.69111191 -10.50060141 247.08441687 C-10.51261442 243.54898982 -10.50306941 240.01394589 -10.49365234 236.47851562 C-10.49771523 233.95095085 -10.50305552 231.42338786 -10.50958252 228.89582825 C-10.52186982 222.73293264 -10.52003297 216.57018005 -10.5113446 210.40728247 C-10.50457657 205.39974227 -10.5036475 200.39223279 -10.50691605 195.38468933 C-10.50737575 194.67269413 -10.50783544 193.96069893 -10.50830907 193.22712812 C-10.50926822 191.7808409 -10.51024086 190.3345537 -10.51122685 188.8882665 C-10.5197868 175.31814835 -10.50993714 161.74809094 -10.49382575 148.17798275 C-10.480422 136.52764166 -10.48274993 124.87739025 -10.49658203 113.22705078 C-10.51262718 99.7063539 -10.51896277 86.18571028 -10.50974524 72.66500521 C-10.50878957 71.2239612 -10.50784646 69.78291719 -10.50691605 68.34187317 C-10.50645322 67.63280393 -10.50599039 66.92373469 -10.50551354 66.1931785 C-10.50292045 61.19014863 -10.50730151 56.18715247 -10.51435471 51.18412781 C-10.52363443 44.45364896 -10.51705226 37.72336609 -10.49967194 30.99289513 C-10.49569253 28.51726756 -10.4968658 26.04162578 -10.50345993 23.5660038 C-10.51160803 20.19733075 -10.50143524 16.82920883 -10.48641968 13.46057129 C-10.49311184 12.47138246 -10.49980401 11.48219363 -10.50669897 10.46302938 C-10.49887572 9.56367367 -10.49105248 8.66431796 -10.48299217 7.73770905 C-10.48250512 6.95976943 -10.48201806 6.18182981 -10.48151624 5.38031626 C-9.41140696 -0.35951165 -4.96909274 -0.01141327 0 0 Z M2.89453125 13.36328125 C2.89453125 91.57328125 2.89453125 169.78328125 2.89453125 250.36328125 C15.43453125 250.69328125 27.97453125 251.02328125 40.89453125 251.36328125 C40.95511719 247.18800781 41.01570313 243.01273438 41.078125 238.7109375 C41.12906132 235.39029223 41.18098282 232.06966564 41.23357391 228.74904633 C41.28889252 225.23906092 41.34245834 221.72906844 41.3918457 218.21899414 C41.44853793 214.19537981 41.51310526 210.17192594 41.578125 206.1484375 C41.59483749 204.88491959 41.61154999 203.62140167 41.62876892 202.31959534 C41.65868675 200.57790321 41.65868675 200.57790321 41.68920898 198.80102539 C41.70475327 197.77288223 41.72029755 196.74473907 41.73631287 195.68544006 C41.89453125 193.36328125 41.89453125 193.36328125 42.89453125 192.36328125 C44.23446741 192.26026711 45.5797109 192.22479672 46.92358398 192.21801758 C47.7779454 192.21163773 48.63230682 192.20525787 49.51255798 192.19868469 C50.4416951 192.19757187 51.37083221 192.19645905 52.328125 192.1953125 C53.27639664 192.1919841 54.22466827 192.1886557 55.20167542 192.18522644 C57.21167514 192.18015306 59.22168333 192.17781824 61.23168945 192.17797852 C64.31540744 192.17579303 67.39876731 192.15764442 70.48242188 192.13867188 C72.43098835 192.13573791 74.37955654 192.13375313 76.328125 192.1328125 C77.25523788 192.12562698 78.18235077 192.11844147 79.13755798 192.11103821 C79.99507156 192.11411484 80.85258514 192.11719147 81.73608398 192.12036133 C82.49251694 192.11893631 83.24894989 192.11751129 84.02830505 192.11604309 C85.89453125 192.36328125 85.89453125 192.36328125 87.89453125 194.36328125 C88.17300415 197.03347778 88.17300415 197.03347778 88.21337891 200.46533203 C88.2332486 201.74650909 88.25311829 203.02768616 88.27359009 204.34768677 C88.28546742 205.75132067 88.29713023 207.15495641 88.30859375 208.55859375 C88.32729817 209.99064256 88.34687103 211.42268027 88.36727905 212.85470581 C88.41868331 216.62593042 88.45826436 220.3971908 88.49542236 224.1685791 C88.53541025 228.01612251 88.58652629 231.86351608 88.63671875 235.7109375 C88.73357612 243.26161608 88.8179492 250.81236693 88.89453125 258.36328125 C92.62168751 259.9790858 96.32387626 261.58188528 100.15625 262.93359375 C100.88263672 263.19011719 101.60902344 263.44664062 102.35742188 263.7109375 C103.09154297 263.96746094 103.82566406 264.22398437 104.58203125 264.48828125 C105.32775391 264.75253906 106.07347656 265.01679687 106.84179688 265.2890625 C110.17641293 266.46108634 113.46036463 267.52080656 116.89453125 268.36328125 C116.89949647 267.41518302 116.89949647 267.41518302 116.904562 266.44793129 C116.98570637 251.08363026 117.0777704 235.71943963 117.18205833 220.35527992 C117.23222614 212.92535088 117.27866846 205.49543311 117.31640625 198.06542969 C117.34929964 191.59106317 117.38911594 185.11678302 117.43732131 178.64251173 C117.46261289 175.21295808 117.48438614 171.78346193 117.49787521 168.35383987 C117.51304597 164.5295716 117.54366965 160.70551395 117.57568359 156.88134766 C117.57784378 155.73839737 117.58000397 154.59544708 117.58222961 153.41786194 C117.5933931 152.38017166 117.60455658 151.34248138 117.61605835 150.27334595 C117.62435449 148.91554488 117.62435449 148.91554488 117.63281822 147.53031349 C117.89453125 145.36328125 117.89453125 145.36328125 119.89453125 143.36328125 C121.72952271 143.08480835 121.72952271 143.08480835 123.97705078 143.04443359 C125.23813156 143.01462906 125.23813156 143.01462906 126.52468872 142.98422241 C127.88725296 142.9668956 127.88725296 142.9668956 129.27734375 142.94921875 C130.20674774 142.9298526 131.13615173 142.91048645 132.09371948 142.89053345 C135.06889605 142.8306444 138.04411113 142.78431515 141.01953125 142.73828125 C143.03387125 142.70011004 145.04819479 142.66105882 147.0625 142.62109375 C152.006377 142.52493525 156.95033042 142.44093885 161.89453125 142.36328125 C162.88324535 145.32942356 163.03065751 147.29754745 163.05274963 150.39360046 C163.06743286 151.95219788 163.06743286 151.95219788 163.08241272 153.5422821 C163.08816818 154.68163712 163.09392365 155.82099213 163.09985352 156.99487305 C163.10975311 158.19500031 163.11965271 159.39512756 163.12985229 160.63162231 C163.15604508 163.92265672 163.17790504 167.2136668 163.19785428 170.50474143 C163.21972164 173.94409021 163.24710666 177.38339491 163.27391052 180.82270813 C163.32382726 187.33558049 163.36876987 193.84847733 163.41193289 200.36139756 C163.46131397 207.77610723 163.51622887 215.19077266 163.57161248 222.60543954 C163.68541688 237.85801257 163.79225928 253.11062627 163.89453125 268.36328125 C167.21202377 267.26301506 170.51345315 266.16187545 173.76953125 264.890625 C174.445 264.63087891 175.12046875 264.37113281 175.81640625 264.10351562 C177.20314007 263.56785059 178.58856253 263.02877839 179.97265625 262.48632812 C180.648125 262.22787109 181.32359375 261.96941406 182.01953125 261.703125 C182.62023437 261.46972412 183.2209375 261.23632324 183.83984375 260.99584961 C186.48861378 260.18038346 189.16083527 259.8016354 191.89453125 259.36328125 C191.8978414 258.45291422 191.90115154 257.54254719 191.904562 256.60459328 C191.9856877 234.48070781 192.0777456 212.35689157 192.18205833 190.2331028 C192.2322374 179.53432274 192.2786796 168.83555056 192.31640625 158.13671875 C192.34928791 148.81453414 192.38909771 139.49240965 192.43732131 130.1702913 C192.46262448 125.23166995 192.48439437 120.29308867 192.49787521 115.35441971 C192.51066106 110.71039301 192.53267746 106.0665035 192.56191444 101.42255211 C192.57101754 99.71409649 192.57668678 98.00561876 192.57874489 96.29714012 C192.58204826 93.97240065 192.59747255 91.64805475 192.61605835 89.32339478 C192.62158911 88.0199795 192.62711987 86.71656422 192.63281822 85.3736515 C192.89453125 82.36328125 192.89453125 82.36328125 194.89453125 80.36328125 C196.76075745 80.11604309 196.76075745 80.11604309 199.05297852 80.12036133 C200.33924889 80.11574638 200.33924889 80.11574638 201.65150452 80.11103821 C202.5786174 80.11822372 203.50573029 80.12540924 204.4609375 80.1328125 C205.41016586 80.13327072 206.35939423 80.13372894 207.33738708 80.13420105 C209.34562428 80.13722487 211.35385909 80.14511501 213.36206055 80.1574707 C216.44783774 80.17572686 219.53331508 80.17798043 222.61914062 80.17773438 C224.56640886 80.18264942 226.51367505 80.18847768 228.4609375 80.1953125 C229.85464317 80.19698174 229.85464317 80.19698174 231.27650452 80.19868469 C232.55804665 80.20825447 232.55804665 80.20825447 233.86547852 80.21801758 C234.62111588 80.22182938 235.37675323 80.22564117 236.1552887 80.22956848 C237.89453125 80.36328125 237.89453125 80.36328125 238.89453125 81.36328125 C239.00381015 83.55256078 239.0414591 85.74541707 239.05274963 87.93739319 C239.05768761 88.63245151 239.06262559 89.32750984 239.0677132 90.04363054 C239.08316149 92.38984295 239.09146852 94.73602786 239.09985352 97.08227539 C239.10942629 98.75728094 239.11943601 100.43228403 239.12985229 102.10728455 C239.15697254 106.66904772 239.17794342 111.23082132 239.19785428 115.7926209 C239.21967008 120.55459207 239.24708025 125.31653087 239.27391052 130.07847595 C239.32389719 139.10241343 239.36881377 148.12636883 239.41193289 157.15034145 C239.46125432 167.42104911 239.51619128 177.69172429 239.57161248 187.96240056 C239.6855242 209.09599869 239.7916017 230.22962658 239.89453125 251.36328125 C252.76453125 251.03328125 265.63453125 250.70328125 278.89453125 250.36328125 C278.89453125 172.15328125 278.89453125 93.94328125 278.89453125 13.36328125 C256.54585615 13.36328125 236.55290477 13.54851123 214.89453125 17.36328125 C213.93466309 17.52344727 212.97479492 17.68361328 211.98583984 17.84863281 C189.78100633 21.58180311 167.65779837 28.77227057 150.89453125 44.36328125 C150.19781311 44.91288513 149.50109497 45.46248901 148.78326416 46.02874756 C146.22446631 49.19150273 146.36004163 51.90187987 146.44042969 55.79394531 C146.43984558 56.53580078 146.43926147 57.27765625 146.43865967 58.04199219 C146.441441 60.48811027 146.47253339 62.93300172 146.50390625 65.37890625 C146.51136851 67.07712132 146.51706152 68.77534501 146.52105713 70.47357178 C146.53631474 74.93884135 146.57559736 79.40358878 146.61987305 83.86865234 C146.66082318 88.42668596 146.67906758 92.98480412 146.69921875 97.54296875 C146.74209172 106.48330206 146.8103444 115.4232482 146.89453125 124.36328125 C142.60453125 124.36328125 138.31453125 124.36328125 133.89453125 124.36328125 C133.91007553 123.42669174 133.92561981 122.49010223 133.94163513 121.52513123 C134.08375865 112.68312405 134.18857522 103.84134965 134.25721645 94.99845791 C134.29369334 90.45250653 134.34313955 85.90747979 134.42260742 81.36206055 C134.49886928 76.97236662 134.54056324 72.58355989 134.55867195 68.19325447 C134.57157029 66.52145487 134.59675934 64.8497019 134.63464165 63.17828178 C135.10219234 54.17245654 135.10219234 54.17245654 132.41139221 45.8261261 C130.65892323 44.03123281 129.00844762 42.70113487 126.89453125 41.36328125 C125.97704102 40.69622162 125.97704102 40.69622162 125.04101562 40.01568604 C123.38785002 38.82133651 121.69371951 37.74436222 119.95703125 36.67578125 C119.38791016 36.31162109 118.81878906 35.94746094 118.23242188 35.57226562 C111.46225645 31.30956888 104.44594403 27.988462 96.89453125 25.36328125 C96.16613037 25.10836914 95.43772949 24.85345703 94.68725586 24.59082031 C87.19796177 22.03062623 79.60686288 20.11569908 71.89453125 18.36328125 C71.03988281 18.14800781 70.18523437 17.93273437 69.3046875 17.7109375 C63.22884828 16.28804866 57.14599808 15.99733411 50.92822266 15.79223633 C44.03564807 15.52262094 37.88014152 14.43799052 30.89453125 13.36328125 C21.65453125 13.36328125 12.41453125 13.36328125 2.89453125 13.36328125 Z "
        fill="#EDEFE1" transform="translate(372.10546875,317.63671875)" />
    <path
        d="M0 0 C3.63 0 7.26 0 11 0 C11.33 83.82 11.66 167.64 12 254 C47.64 254 83.28 254 120 254 C145.99860335 260.49965084 145.99860335 260.49965084 155.25 269.5625 C162.55013214 276.54565272 168.38003797 282.04962641 178.8125 282.4375 C189.12588165 282.0783275 194.9940053 278.52122534 201.95629883 271.14916992 C213.36875848 259.08862029 229.26614469 254.04804479 245.54895592 253.52560902 C251.12416085 253.42694382 256.69751491 253.42052039 262.2734375 253.42578125 C264.69342044 253.4133178 267.11339437 253.39897854 269.53335571 253.38285828 C275.85556955 253.34507147 282.1776271 253.32968176 288.49993896 253.32006836 C298.66716107 253.30021082 308.83426574 253.24361695 319.00136185 253.19130516 C322.55181159 253.17592904 326.10220225 253.16876625 329.65267944 253.16316223 C331.80800406 253.15615222 333.96332838 253.1490518 336.11865234 253.1418457 C337.11072189 253.14237442 338.10279144 253.14290314 339.12492371 253.14344788 C340.47018379 253.13743561 340.47018379 253.13743561 341.84262085 253.13130188 C342.62602026 253.1300446 343.40941967 253.12878733 344.21655846 253.12749195 C346.02438534 253.19391033 346.02438534 253.19391033 347 252 C347.10132403 250.65013302 347.13396267 249.29503105 347.1386652 247.94137478 C347.14413964 247.06156805 347.14961409 246.18176131 347.15525442 245.27529377 C347.15623253 244.29768764 347.15721064 243.32008151 347.15821838 242.31285095 C347.16562535 240.76798652 347.16562535 240.76798652 347.17318195 239.19191271 C347.18864046 235.71249757 347.19694005 232.23310099 347.20532227 228.75366211 C347.21489424 226.27078587 347.2249039 223.78791129 347.23532104 221.30503845 C347.25681847 215.94499695 347.27524836 210.58495812 347.29092598 205.22489738 C347.31359868 197.47506577 347.34174506 189.72526172 347.37124526 181.97545344 C347.41895313 169.40316275 347.46220862 156.83086082 347.50268555 144.25854492 C347.54202424 132.0427157 347.58344654 119.82689649 347.62768555 107.61108398 C347.63177196 106.48239374 347.63177196 106.48239374 347.63594092 105.33090167 C347.64962013 101.55618623 347.66334045 97.78147093 347.67708123 94.00675571 C347.79109617 62.6711911 347.89782057 31.33560554 348 0 C349.79133978 -0.05391993 351.58313899 -0.09275571 353.375 -0.125 C354.37273437 -0.14820313 355.37046875 -0.17140625 356.3984375 -0.1953125 C359 0 359 0 361 2 C361.251849 3.86488706 361.251849 3.86488706 361.25447559 6.18332386 C361.26030779 7.06552154 361.26613998 7.94771923 361.27214891 8.85665017 C361.26836958 9.83182381 361.26459026 10.80699745 361.26069641 11.8117218 C361.26452196 12.84304157 361.26834751 13.87436134 361.27228898 14.93693322 C361.28266184 18.41544451 361.27861869 21.89379204 361.2746582 25.37231445 C361.27900236 27.85707757 361.2841845 30.34183935 361.29014587 32.82659912 C361.30218298 38.88934275 361.30468319 44.95202129 361.30234561 51.0147709 C361.3005649 55.94222216 361.30230678 60.86965996 361.30657005 65.7971096 C361.30716524 66.4975614 361.30776043 67.1980132 361.30837366 67.91969081 C361.30958537 69.34254009 361.31079951 70.76538937 361.31201603 72.18823864 C361.32290227 85.54379549 361.32072423 98.89932712 361.31463119 112.2548854 C361.30946363 124.47638053 361.32071125 136.69779591 361.33972941 148.91927526 C361.35909714 161.46137792 361.36736552 174.00344283 361.36360615 186.54556054 C361.36169216 193.58970429 361.36420073 200.63378019 361.37832069 207.67791176 C361.39146485 214.30247709 361.38898884 220.92690902 361.37590981 227.55148315 C361.3735365 229.98595928 361.37630552 232.42044652 361.38453293 234.8549099 C361.39493835 238.17256988 361.38694927 241.48968722 361.3742218 244.80732727 C361.38159609 245.77580874 361.38897037 246.74429021 361.39656812 247.74211961 C361.34789026 253.75392226 360.59917822 257.3299351 356.28125 261.765625 C355.6934375 262.25546875 355.105625 262.7453125 354.5 263.25 C353.9121875 263.75015625 353.324375 264.2503125 352.71875 264.765625 C349.765573 266.88654302 347.1557416 267.12559241 343.64007568 267.13130188 C342.74890045 267.13531006 341.85772522 267.13931824 340.93954468 267.14344788 C339.96401642 267.14291916 338.98848816 267.14239044 337.98339844 267.1418457 C336.95366913 267.14532013 335.92393982 267.14879456 334.86300659 267.15237427 C332.62205293 267.1597348 330.38109197 267.16507859 328.14012909 267.16866493 C324.58198676 267.17583645 321.02398186 267.19151208 317.46588135 267.21000671 C307.34706605 267.26241702 297.22832285 267.3103676 287.109375 267.32592773 C280.92009094 267.33606893 274.73114834 267.36555657 268.54199982 267.40724754 C266.19316453 267.41948397 263.84428082 267.4246924 261.49541473 267.42244911 C241.49836285 267.40806189 224.69844286 268.54866976 209.515625 282.68359375 C199.02985625 292.33896777 190.30379611 296.40890966 175.83203125 296.2109375 C164.60387851 295.37463371 156.63053576 289.8506482 149 281.9375 C138.9062714 271.61155372 124.74041973 267.12221004 110.37733459 266.85523987 C108.54594056 266.84077146 106.71450075 266.83150827 104.88305664 266.82641602 C103.87905319 266.819729 102.87504974 266.81304199 101.84062195 266.80615234 C99.66682696 266.79213676 97.49301756 266.7802317 95.31920052 266.77020454 C91.87643804 266.75374505 88.43378255 266.73050602 84.99107361 266.70530701 C75.20479694 266.63466094 65.41847747 266.57440153 55.63208008 266.52319336 C49.6404573 266.49136722 43.6489596 266.45008669 37.65743828 266.40299797 C35.37734668 266.3870053 33.09722634 266.37467114 30.8170948 266.36609077 C27.62671351 266.35390935 24.43662543 266.32974833 21.24633789 266.30297852 C19.83951248 266.3020948 19.83951248 266.3020948 18.40426636 266.30119324 C6.76787975 266.17210294 6.76787975 266.17210294 2.2578125 262.6328125 C-1.1057605 258.15578085 -2.12354928 255.08520654 -2.12863445 249.57781792 C-2.1318589 248.69327144 -2.13508335 247.80872495 -2.1384055 246.89737403 C-2.1368569 245.92987067 -2.1353083 244.9623673 -2.13371277 243.96554565 C-2.13597833 242.93448389 -2.13824388 241.90342213 -2.14057809 240.84111607 C-2.14692374 237.37567416 -2.14608837 233.91027131 -2.14526367 230.44482422 C-2.14825473 227.96475168 -2.15165713 225.48467961 -2.15544128 223.00460815 C-2.1633695 216.96187722 -2.16649606 210.91916173 -2.16705366 204.87642704 C-2.16752867 199.9671174 -2.16958264 195.05781097 -2.17275429 190.14850235 C-2.18155914 176.23720748 -2.1861737 162.32592033 -2.18542381 148.41462265 C-2.18538386 147.66468682 -2.1853439 146.914751 -2.18530273 146.14208984 C-2.18526185 145.39124155 -2.18522097 144.64039325 -2.18517885 143.86679198 C-2.18477199 131.68544831 -2.19435206 119.50413548 -2.2084411 107.32280074 C-2.22278541 94.82246507 -2.22971242 82.32214447 -2.22884732 69.82180035 C-2.22851478 62.80071085 -2.23128737 55.77965373 -2.24202538 48.75857162 C-2.25205081 42.16109978 -2.25181508 35.56368488 -2.24450874 28.9662056 C-2.2434577 26.53852997 -2.24585629 24.11085017 -2.2518692 21.68318176 C-2.25951875 18.38220119 -2.25499144 15.08146196 -2.24723816 11.78048706 C-2.25238172 10.80852225 -2.25752529 9.83655744 -2.26282471 8.83513916 C-2.25822592 7.95580817 -2.25362712 7.07647718 -2.24888897 6.1704998 C-2.24910634 5.40791135 -2.24932371 4.64532289 -2.24954766 3.8596257 C-2 2 -2 2 0 0 Z "
        fill="#EBEEE0" transform="translate(333,348)" />
</svg>